
<svg xmlns="http://www.w3.org/2000/svg" version="1.1" xmlns:xlink="http://www.w3.org/1999/xlink" preserveAspectRatio="none" x="0px" y="0px" width="45px" height="45px" viewBox="0 0 45 45">
<defs>
<g id="_______1_0_Layer0_0_FILL">
<path fill="#000000" stroke="none" d="
M 20.6 36.55
L 23.3 26.25 33.6 29 34.6 25.15 20.5 21.35 16.7 35.55 20.6 36.55
M 16.4 0
L 13.65 10.3 3.35 7.55 2.3 11.4 16.5 15.2 20.25 1.05 16.4 0
M 15.2 19.95
L 1.05 16.15 0 20.05 10.3 22.75 7.55 33.05 11.4 34.1 15.2 19.95
M 36.9 16.55
L 26.65 13.8 29.4 3.5 25.55 2.45 21.75 16.65 35.85 20.4 36.9 16.55 Z"/>
</g>
</defs>

<g id="_____1">
<g transform="matrix( 1, 0, 0, 1, 4.05,4.25) ">
<g transform="matrix( 1, 0, 0, 1, 0,0) ">
<use xlink:href="#_______1_0_Layer0_0_FILL"/>
</g>
</g>
</g>
</svg>
