
<svg xmlns="http://www.w3.org/2000/svg" version="1.1" xmlns:xlink="http://www.w3.org/1999/xlink" preserveAspectRatio="none" x="0px" y="0px" width="45px" height="45px" viewBox="0 0 45 45">
<defs>
<g id="_______14_0_Layer0_0_FILL">
<path fill="#000000" stroke="none" d="
M 26.85 2.3
Q 24.6 0 21.35 0 18.15 0 15.95 2.25
L 8.25 9.95
Q 6 12.15 6 15.3 6 17.05 6.65 18.5
L 2.2 23
Q 0 25.15 0 28.35 0 31.5 2.2 33.75
L 2.2 33.8 2.25 33.85
Q 4.45 35.95 7.6 36
L 7.65 36
Q 10.9 36.1 13.1 33.85
L 13.1 33.9 20.8 26.2
Q 23 23.95 23 20.65 23 19 22.35 17.6
L 26.85 13.15 26.8 13.15
Q 29.05 10.95 29.05 7.7 29.05 4.5 26.85 2.3
M 24 5.1
L 24 5.15
Q 25.05 6.2 25.05 7.7 25.05 9.25 24 10.3
L 19.8 14.45
Q 17.85 13 15.3 13
L 15.25 13
Q 12.2 13.05 10 15.15 10.05 13.75 11.1 12.8
L 18.8 5.1
Q 19.85 4 21.35 4 22.9 4 24 5.1
M 15.35 17
Q 16.2 17 16.9 17.35
L 16.3 18
Q 15.25 19.05 13.75 19
L 13.65 19
Q 12.8 19 12.15 18.75
L 12.75 18.15
Q 13.8 17.05 15.35 17
M 13.65 23
Q 13.7 23 13.75 23 16.8 23.05 19 20.95 18.9 22.35 17.95 23.35
L 10.25 31.05
Q 9.2 32.05 7.75 32
L 7.65 32
Q 6.1 32 5.05 31
L 5.1 31 5.05 30.95
Q 4 29.9 4 28.35 4 26.85 5.05 25.85
L 9.2 21.65
Q 11.1 23 13.65 23 Z"/>
</g>
</defs>

<g id="_____1">
<g transform="matrix( 1, 0, 0, 1, 8,4.5) ">
<g transform="matrix( 1, 0, 0, 1, 0,0) ">
<use xlink:href="#_______14_0_Layer0_0_FILL"/>
</g>
</g>
</g>
</svg>
