
<svg xmlns="http://www.w3.org/2000/svg" version="1.1" xmlns:xlink="http://www.w3.org/1999/xlink" preserveAspectRatio="none" x="0px" y="0px" width="85px" height="85px" viewBox="0 0 85 85">
<defs>
<g id="_______1_0_Layer0_0_FILL">
<path fill="#FFFFFF" stroke="none" d="
M 4.7 74.8
L 4.7 78.8 64.35 78.8 64.35 74.8 4.7 74.8
M 59.8 10.1
L 56.05 1.5 29 8.55 27.7 5.75 32.6 3.65 31 0 17.7 5.8 19.3 9.45 24.05 7.35 25.35 10.15 1.2 24.95 4.9 33.6 59.8 10.1
M 53.75 6.2
L 54.55 8 7 28.35 6.25 26.55 28.8 12.7 53.75 6.2
M 55 23.15
L 51.3 21.6 43.9 38.9 7.55 38.9 2.85 34.15 0 36.95 4.7 41.75 4.7 70.7 64.35 70.7 64.35 42.3 69.65 36.9 66.75 34.15 62.05 38.9 48.25 38.9 55 23.15
M 45.4 42.9
L 60.35 42.9 60.35 66.7 8.7 66.7 8.7 42.9 45.05 42.9
Q 45.2 42.9 45.4 42.9 Z"/>
</g>
</defs>

<g id="_____1">
<g transform="matrix( 1, 0, 0, 1, 7.7,3.1) ">
<g transform="matrix( 1, 0, 0, 1, 0,0) ">
<use xlink:href="#_______1_0_Layer0_0_FILL"/>
</g>
</g>
</g>
</svg>
