
<svg xmlns="http://www.w3.org/2000/svg" version="1.1" xmlns:xlink="http://www.w3.org/1999/xlink" preserveAspectRatio="none" x="0px" y="0px" width="45px" height="45px" viewBox="0 0 45 45">
<defs>
<g id="_______13_0_Layer0_0_FILL">
<path fill="#000000" stroke="none" d="
M 31.8 5.95
L 31.8 0 4.05 0 4.05 5.95 0 5.95 0 27.2 6.05 27.2 6.05 33.55 30.05 33.55 30.05 27.2 36 27.2 36 5.95 31.8 5.95
M 27.8 4
L 27.8 5.95 8.05 5.95 8.05 4 27.8 4
M 30.05 23.2
L 30.05 18.2 6.05 18.2 6.05 23.2 4 23.2 4 9.95 32 9.95 32 23.2 30.05 23.2
M 10.05 22.2
L 26.05 22.2 26.05 29.55 10.05 29.55 10.05 22.2
M 29.65 11.45
L 24.5 11.45 24.5 15.45 29.65 15.45 29.65 11.45 Z"/>
</g>
</defs>

<g id="_____1">
<g transform="matrix( 1, 0, 0, 1, 4.5,5.75) ">
<g transform="matrix( 1, 0, 0, 1, 0,0) ">
<use xlink:href="#_______13_0_Layer0_0_FILL"/>
</g>
</g>
</g>
</svg>
