
<svg xmlns="http://www.w3.org/2000/svg" version="1.1" xmlns:xlink="http://www.w3.org/1999/xlink" preserveAspectRatio="none" x="0px" y="0px" width="45px" height="45px" viewBox="0 0 45 45">
<defs>
<g id="_______5_0_Layer0_0_FILL">
<path fill="#000000" stroke="none" d="
M 24.15 4.15
L 24.2 4.15
Q 20.15 0.1 14.55 0
L 13.8 0
Q 8.2 0.1 4.15 4.15 0.1 8.15 0 13.85
L 0 14.55
Q 0.1 20.15 4.15 24.2
L 4.15 24.25
Q 8.35 28.35 14.15 28.35 19 28.35 22.7 25.55
L 34.05 36.85 36.85 34 25.5 22.75
Q 28.35 19 28.35 14.2 28.35 8.25 24.15 4.15
M 24.35 14.2
Q 24.35 18.35 21.35 21.4 18.35 24.35 14.15 24.35 10 24.35 7 21.4
L 6.95 21.4
Q 4.1 18.45 4 14.45
L 4 13.9
Q 4.1 9.85 7 7
L 6.95 7
Q 9.9 4.1 13.9 4
L 14.5 4
Q 18.45 4.1 21.35 7 24.35 9.95 24.35 14.2 Z"/>
</g>
</defs>

<g id="_____1">
<g transform="matrix( 1, 0, 0, 1, 4.1,4.1) ">
<g transform="matrix( 1, 0, 0, 1, 0,0) ">
<use xlink:href="#_______5_0_Layer0_0_FILL"/>
</g>
</g>
</g>
</svg>
