
<svg xmlns="http://www.w3.org/2000/svg" version="1.1" xmlns:xlink="http://www.w3.org/1999/xlink" preserveAspectRatio="none" x="0px" y="0px" width="45px" height="45px" viewBox="0 0 45 45">
<defs>
<g id="_______7_0_Layer0_0_FILL">
<path fill="#000000" stroke="none" d="
M 30.1 24.45
L 30.15 24.45
Q 31.05 23.2 31.8 21.85
L 35.95 21.95 36.05 17.95 33.55 17.9
Q 33.55 17.8 33.6 17.7
L 34.55 15.05 0.85 15.1 1.75 17.75
Q 1.9 18.15 2.05 18.55
L 0 18.55 0 22.55 4.05 22.55
Q 4.6 23.5 5.3 24.45 10.4 31.25 17.65 31.2 24.95 31.25 30.1 24.45
M 28.65 19.2
Q 28.6 19.3 28.6 19.4 28.55 19.45 28.5 19.5 28.5 19.55 28.5 19.6 27.75 20.85 26.9 22.05
L 26.9 22.1
Q 23.05 27.15 17.65 27.2 12.3 27.15 8.55 22.1
L 8.5 22.05
Q 7.7 21 7.05 19.85 6.95 19.6 6.85 19.45 6.75 19.25 6.65 19.1
L 28.7 19.05
Q 28.65 19.1 28.65 19.2
M 28.55 19.9
L 28.5 20 28.5 19.95 28.55 19.75
Q 28.55 19.8 28.55 19.9
M 9.05 32.85
L 9.05 36.85 26.35 36.85 26.35 32.85 9.05 32.85
M 19.65 0
L 15.65 0 15.65 11.55 19.65 11.55 19.65 0
M 12.95 10.35
L 12.95 3.1 8.95 3.1 8.95 10.35 12.95 10.35
M 26.1 4.25
L 22.1 4.25 22.1 10.2 26.1 10.2 26.1 4.25 Z"/>
</g>
</defs>

<g id="_____1">
<g transform="matrix( 1, 0, 0, 1, 4.5,4.1) ">
<g transform="matrix( 1, 0, 0, 1, 0,0) ">
<use xlink:href="#_______7_0_Layer0_0_FILL"/>
</g>
</g>
</g>
</svg>
