
<svg xmlns="http://www.w3.org/2000/svg" version="1.1" xmlns:xlink="http://www.w3.org/1999/xlink" preserveAspectRatio="none" x="0px" y="0px" width="45px" height="45px" viewBox="0 0 45 45">
<defs>
<g id="_______15_0_Layer0_0_FILL">
<path fill="#000000" stroke="none" d="
M 29.8 12.8
Q 27.65 10.65 24.6 10.65 21.75 10.65 19.75 12.45
L 15.3 9.4
Q 15.6 8.4 15.6 7.3 15.6 4.3 13.5 2.1
L 13.45 2.1
Q 11.35 0 8.25 0 5.25 0 3.1 2.05
L 3 2.15
Q 0.95 4.3 0.95 7.3 0.95 10.4 3.05 12.5
L 3.05 12.55
Q 5.25 14.65 8.25 14.65 11.15 14.65 13.2 12.8
L 17.6 15.8
Q 17.25 16.8 17.25 18 17.25 18.1 17.25 18.2
L 17.25 18.3
Q 17.35 19.8 17.9 21.05
L 12.8 23.7
Q 12.65 23.55 12.55 23.45 10.45 21.3 7.35 21.3 4.25 21.3 2.15 23.45 0 25.55 0 28.65 0 31.75 2.15 33.8
L 2.15 33.85
Q 4.25 36 7.35 36 10.4 36 12.5 33.85 12.5 33.8 12.55 33.8 14.7 31.7 14.7 28.65 14.7 27.95 14.6 27.3
L 20.55 24.15
Q 22.3 25.3 24.6 25.3 27.65 25.3 29.8 23.2 31.9 21.05 31.9 18 31.9 14.9 29.8 12.8
M 26.95 15.65
Q 27.9 16.6 27.9 18 27.9 19.35 26.95 20.35 25.95 21.3 24.6 21.3 23.2 21.3 22.25 20.35 22.15625 20.25625 22.1 20.2 22.0765625 20.1736328125 22.05 20.15 21.2986328125 19.26484375 21.25 18.1 21.25 18.05 21.25 18 21.25 17.1 21.65 16.4 21.8 16.2 21.9 16 22 15.85 22.15 15.7
L 22.25 15.65
Q 23.2 14.65 24.6 14.65 25.95 14.65 26.95 15.65
M 10.65 4.9
L 10.65 4.95
Q 11.6 5.95 11.6 7.3 11.6 8.25 11.15 9 11.1 9.05 11.1 9.1
L 11.05 9.15
Q 11 9.2 11 9.25 10.85 9.5 10.65 9.7 9.65 10.65 8.25 10.65 6.9 10.65 5.9 9.7
L 5.85 9.7
Q 4.95 8.7 4.95 7.3 4.95 5.95 5.85 4.95 5.85 4.9 5.9 4.9 6.9 4 8.25 4 9.65 4 10.65 4.9
M 10.35 27.2
Q 10.7 27.9 10.7 28.65 10.7 30.05 9.75 30.95
L 9.65 31.05
Q 8.75 32 7.35 32 5.95 32 5 31
L 4.95 31
Q 4 30.05 4 28.65 4 27.25 5 26.3 5.95 25.3 7.35 25.3 8.75 25.3 9.7 26.25
L 9.7 26.3
Q 10.1 26.7 10.35 27.2 Z"/>
</g>
</defs>

<g id="_____1">
<g transform="matrix( 1, 0, 0, 1, 6.55,4.5) ">
<g transform="matrix( 1, 0, 0, 1, 0,0) ">
<use xlink:href="#_______15_0_Layer0_0_FILL"/>
</g>
</g>
</g>
</svg>
