
<svg xmlns="http://www.w3.org/2000/svg" version="1.1" xmlns:xlink="http://www.w3.org/1999/xlink" preserveAspectRatio="none" x="0px" y="0px" width="45px" height="45px" viewBox="0 0 45 45">
<defs>
<g id="_______4_0_Layer0_0_FILL">
<path fill="#000000" stroke="none" d="
M 31.05 24.05
L 38.65 14 26.55 10.3 19.3 0 12.05 10.3 0 14 7.6 24.05 7.35 36.7 19.3 32.6 31.25 36.7 31.05 24.05
M 32 16.15
L 27 22.75 27.15 31.05 19.3 28.35 11.45 31.05 11.65 22.75 6.65 16.15 14.55 13.7 19.35 6.95 24.05 13.7 32 16.15 Z"/>
</g>
</defs>

<g id="_____1">
<g transform="matrix( 1, 0, 0, 1, 3.2,4.15) ">
<g transform="matrix( 1, 0, 0, 1, 0,0) ">
<use xlink:href="#_______4_0_Layer0_0_FILL"/>
</g>
</g>
</g>
</svg>
