
<svg xmlns="http://www.w3.org/2000/svg" version="1.1" xmlns:xlink="http://www.w3.org/1999/xlink" preserveAspectRatio="none" x="0px" y="0px" width="45px" height="45px" viewBox="0 0 45 45">
<defs>
<g id="_______9_0_Layer0_0_FILL">
<path fill="#000000" stroke="none" d="
M 11.15 11.3
L 0 11.3 0 36 11.15 36 11.15 11.3
M 4 15.3
L 7.15 15.3 7.15 32 4 32 4 15.3
M 27.15 11.3
L 27.15 0 14.55 0 14.55 36 36.65 36 43.6 11.3 27.15 11.3
M 23.15 4
L 23.15 15.3 38.3 15.3 33.6 32 18.55 32 18.55 4 23.15 4 Z"/>
</g>
</defs>

<g id="_____1">
<g transform="matrix( 1, 0, 0, 1, 0.7,4.5) ">
<g transform="matrix( 1, 0, 0, 1, 0,0) ">
<use xlink:href="#_______9_0_Layer0_0_FILL"/>
</g>
</g>
</g>
</svg>
