
<svg xmlns="http://www.w3.org/2000/svg" version="1.1" xmlns:xlink="http://www.w3.org/1999/xlink" preserveAspectRatio="none" x="0px" y="0px" width="45px" height="45px" viewBox="0 0 45 45">
<defs>
<g id="_______10_0_Layer0_0_FILL">
<path fill="#000000" stroke="none" d="
M 0 24.7
L 16.45 24.7 16.45 36 29.05 36 29.05 0 7 0 0 24.7
M 5.3 20.7
L 10.05 4 25.05 4 25.05 32 20.45 32 20.45 20.7 5.3 20.7
M 43.6 24.7
L 43.6 0 32.45 0 32.45 24.7 43.6 24.7
M 36.45 20.7
L 36.45 4 39.6 4 39.6 20.7 36.45 20.7 Z"/>
</g>
</defs>

<g id="_____1">
<g transform="matrix( 1, 0, 0, 1, 0.7,4.5) ">
<g transform="matrix( 1, 0, 0, 1, 0,0) ">
<use xlink:href="#_______10_0_Layer0_0_FILL"/>
</g>
</g>
</g>
</svg>
