
<svg xmlns="http://www.w3.org/2000/svg" version="1.1" xmlns:xlink="http://www.w3.org/1999/xlink" preserveAspectRatio="none" x="0px" y="0px" width="45px" height="45px" viewBox="0 0 45 45">
<defs>
<g id="_______6_0_Layer0_0_FILL">
<path fill="#000000" stroke="none" d="
M 26.25 9.75
L 26.2 9.75
Q 22.4 5.95 17.35 5.4
L 17.35 4 21.2 4 21.2 0 9.45 0 9.45 4 13.35 4 13.35 5.4
Q 8.25 5.95 4.45 9.75 0 14.3 0 20.65 0 27 4.45 31.5
L 4.45 31.55
Q 9 36 15.35 36 21.65 36 26.2 31.55 30.75 27.05 30.75 20.65 30.75 14.25 26.25 9.75
M 23.4 12.6
Q 26.75 15.95 26.75 20.65 26.75 25.35 23.4 28.7 20.05 32 15.35 32 10.65 32 7.3 28.7
L 7.25 28.7
Q 4 25.35 4 20.65 4 15.95 7.25 12.6
L 7.3 12.55
Q 10.6 9.25 15.3 9.25
L 15.4 9.25
Q 20.05 9.25 23.4 12.6
M 22.5 23.6
L 22.5 19.6 17.35 19.6 17.35 11.2 13.35 11.2 13.35 23.6 22.5 23.6 Z"/>
</g>
</defs>

<g id="_____1">
<g transform="matrix( 1, 0, 0, 1, 7.15,4.5) ">
<g transform="matrix( 1, 0, 0, 1, 0,0) ">
<use xlink:href="#_______6_0_Layer0_0_FILL"/>
</g>
</g>
</g>
</svg>
