
<svg xmlns="http://www.w3.org/2000/svg" version="1.1" xmlns:xlink="http://www.w3.org/1999/xlink" preserveAspectRatio="none" x="0px" y="0px" width="45px" height="45px" viewBox="0 0 45 45">
<defs>
<g id="_______2_0_Layer0_0_FILL">
<path fill="#000000" stroke="none" d="
M 34.5 24.5
L 0 24.5 0 36 34.5 36 34.5 24.5
M 4 32
L 4 28.5 30.5 28.5 30.5 32 4 32
M 28.6 11.4
Q 28.6 6.65 25.3 3.35 21.95 0 17.25 0 12.5 0 9.2 3.35 5.8 6.7 5.8 11.4 5.8 16.15 9.2 19.45
L 9.2 19.4
Q 12.45 22.75 17.25 22.75 22.05 22.75 25.25 19.45 25.3 19.45 25.3 19.4 28.6 16.2 28.6 11.4
M 22.45 6.2
Q 24.6 8.35 24.6 11.4 24.6 14.5 22.45 16.55
L 22.4 16.6
Q 20.35 18.75 17.25 18.75 14.15 18.75 12.05 16.6
L 12 16.6 12 16.55
Q 9.8 14.45 9.8 11.4 9.8 8.4 12.05 6.2 14.2 4 17.25 4 20.25 4 22.45 6.2 Z"/>
</g>
</defs>

<g id="Layer_1">
<g transform="matrix( 1, 0, 0, 1, 5.25,4.5) ">
<g id="_____1">
<g transform="matrix( 1, 0, 0, 1, 0,0) ">
<use xlink:href="#_______2_0_Layer0_0_FILL"/>
</g>
</g>
</g>
</g>
</svg>
